<mxfile host="app.diagrams.net" modified="2023-11-06T13:48:51.019Z" agent="Mozilla/5.0 (Windows NT 10.0; Win64; x64; rv:109.0) Gecko/20100101 Firefox/119.0" etag="8DT559cl9niXqxP03_2Q" version="22.0.8" type="github">
  <diagram name="Rotina-1" id="LGk8vIT0wlEcZePuFMSn">
    <mxGraphModel dx="1434" dy="774" grid="1" gridSize="10" guides="1" tooltips="1" connect="1" arrows="1" fold="1" page="1" pageScale="1" pageWidth="827" pageHeight="1169" math="0" shadow="0">
      <root>
        <mxCell id="0" />
        <mxCell id="1" parent="0" />
        <mxCell id="YNSaIWkpB4IxSgvjuZkx-1" value="" style="endArrow=classic;html=1;rounded=0;" edge="1" parent="1">
          <mxGeometry width="50" height="50" relative="1" as="geometry">
            <mxPoint x="119.5" y="170" as="sourcePoint" />
            <mxPoint x="119.5" y="230" as="targetPoint" />
          </mxGeometry>
        </mxCell>
        <mxCell id="YNSaIWkpB4IxSgvjuZkx-2" value="" style="endArrow=classic;html=1;rounded=0;" edge="1" parent="1">
          <mxGeometry width="50" height="50" relative="1" as="geometry">
            <mxPoint x="120" y="340" as="sourcePoint" />
            <mxPoint x="120" y="400" as="targetPoint" />
          </mxGeometry>
        </mxCell>
        <mxCell id="YNSaIWkpB4IxSgvjuZkx-4" value="" style="endArrow=classic;html=1;rounded=0;" edge="1" parent="1">
          <mxGeometry width="50" height="50" relative="1" as="geometry">
            <mxPoint x="120" y="510" as="sourcePoint" />
            <mxPoint x="119.5" y="575" as="targetPoint" />
          </mxGeometry>
        </mxCell>
        <mxCell id="YNSaIWkpB4IxSgvjuZkx-5" value="" style="endArrow=classic;html=1;rounded=0;" edge="1" parent="1">
          <mxGeometry width="50" height="50" relative="1" as="geometry">
            <mxPoint x="120.5" y="690" as="sourcePoint" />
            <mxPoint x="120" y="755" as="targetPoint" />
          </mxGeometry>
        </mxCell>
        <mxCell id="YNSaIWkpB4IxSgvjuZkx-6" value="Preparar o Café" style="rounded=1;whiteSpace=wrap;html=1;absoluteArcSize=1;arcSize=14;strokeWidth=2;" vertex="1" parent="1">
          <mxGeometry x="52.5" y="770" width="155" height="80" as="geometry" />
        </mxCell>
        <mxCell id="YNSaIWkpB4IxSgvjuZkx-7" value="" style="endArrow=classic;html=1;rounded=0;" edge="1" parent="1">
          <mxGeometry width="50" height="50" relative="1" as="geometry">
            <mxPoint x="120" y="860" as="sourcePoint" />
            <mxPoint x="119.5" y="925" as="targetPoint" />
          </mxGeometry>
        </mxCell>
        <mxCell id="YNSaIWkpB4IxSgvjuZkx-36" value="Início" style="ellipse;whiteSpace=wrap;html=1;" vertex="1" parent="1">
          <mxGeometry x="40" y="30" width="160" height="120" as="geometry" />
        </mxCell>
        <mxCell id="YNSaIWkpB4IxSgvjuZkx-37" value="Acordar e Desligar o Alarme" style="rounded=1;whiteSpace=wrap;html=1;absoluteArcSize=1;arcSize=14;strokeWidth=2;" vertex="1" parent="1">
          <mxGeometry x="42.5" y="240" width="155" height="80" as="geometry" />
        </mxCell>
        <mxCell id="YNSaIWkpB4IxSgvjuZkx-38" value="Levantar, Tomar Banho, Escovar os Dentes" style="rounded=1;whiteSpace=wrap;html=1;absoluteArcSize=1;arcSize=14;strokeWidth=2;" vertex="1" parent="1">
          <mxGeometry x="42.5" y="410" width="155" height="80" as="geometry" />
        </mxCell>
        <mxCell id="YNSaIWkpB4IxSgvjuZkx-39" value="Levantar, Tomar Banho, Escovar os Dentes" style="rounded=1;whiteSpace=wrap;html=1;absoluteArcSize=1;arcSize=14;strokeWidth=2;" vertex="1" parent="1">
          <mxGeometry x="45" y="590" width="155" height="80" as="geometry" />
        </mxCell>
        <mxCell id="YNSaIWkpB4IxSgvjuZkx-158" value="Mostrar o N° de Embalagens de café" style="shape=display;whiteSpace=wrap;html=1;" vertex="1" parent="1">
          <mxGeometry x="42.5" y="1160" width="160" height="90" as="geometry" />
        </mxCell>
        <mxCell id="YNSaIWkpB4IxSgvjuZkx-159" value="" style="endArrow=classic;html=1;rounded=0;" edge="1" parent="1">
          <mxGeometry width="50" height="50" relative="1" as="geometry">
            <mxPoint x="120" y="1080" as="sourcePoint" />
            <mxPoint x="120" y="1140" as="targetPoint" />
          </mxGeometry>
        </mxCell>
        <mxCell id="YNSaIWkpB4IxSgvjuZkx-161" value="" style="endArrow=classic;html=1;rounded=0;" edge="1" parent="1">
          <mxGeometry width="50" height="50" relative="1" as="geometry">
            <mxPoint x="120" y="1250" as="sourcePoint" />
            <mxPoint x="119.5" y="1315" as="targetPoint" />
          </mxGeometry>
        </mxCell>
        <mxCell id="YNSaIWkpB4IxSgvjuZkx-162" value="Pegar o suporte para Filtro,&amp;nbsp; a Garrafa Térmica e o Filtro de Café" style="rounded=1;whiteSpace=wrap;html=1;absoluteArcSize=1;arcSize=14;strokeWidth=2;" vertex="1" parent="1">
          <mxGeometry x="40" y="1340" width="177.5" height="70" as="geometry" />
        </mxCell>
        <mxCell id="YNSaIWkpB4IxSgvjuZkx-163" value="" style="endArrow=classic;html=1;rounded=0;" edge="1" parent="1">
          <mxGeometry width="50" height="50" relative="1" as="geometry">
            <mxPoint x="120.5" y="1430" as="sourcePoint" />
            <mxPoint x="120" y="1495" as="targetPoint" />
          </mxGeometry>
        </mxCell>
        <mxCell id="YNSaIWkpB4IxSgvjuZkx-164" value="Colocar o suporte com o Filtro na Bancada da Cozinha" style="rounded=1;whiteSpace=wrap;html=1;absoluteArcSize=1;arcSize=14;strokeWidth=2;" vertex="1" parent="1">
          <mxGeometry x="52.5" y="1510" width="155" height="80" as="geometry" />
        </mxCell>
        <mxCell id="YNSaIWkpB4IxSgvjuZkx-165" value="" style="endArrow=classic;html=1;rounded=0;" edge="1" parent="1">
          <mxGeometry width="50" height="50" relative="1" as="geometry">
            <mxPoint x="120" y="1600" as="sourcePoint" />
            <mxPoint x="119.5" y="1665" as="targetPoint" />
          </mxGeometry>
        </mxCell>
        <mxCell id="YNSaIWkpB4IxSgvjuZkx-166" value="Em um Bule: colocar agua e levar ao fogo" style="rounded=1;whiteSpace=wrap;html=1;absoluteArcSize=1;arcSize=14;strokeWidth=2;" vertex="1" parent="1">
          <mxGeometry x="52.5" y="1670" width="155" height="80" as="geometry" />
        </mxCell>
        <mxCell id="YNSaIWkpB4IxSgvjuZkx-167" value="" style="endArrow=classic;html=1;rounded=0;" edge="1" parent="1">
          <mxGeometry width="50" height="50" relative="1" as="geometry">
            <mxPoint x="122.5" y="1770" as="sourcePoint" />
            <mxPoint x="122" y="1835" as="targetPoint" />
          </mxGeometry>
        </mxCell>
        <mxCell id="YNSaIWkpB4IxSgvjuZkx-168" value="Colocar a medida do pó de Café no Filtro " style="rounded=1;whiteSpace=wrap;html=1;absoluteArcSize=1;arcSize=14;strokeWidth=2;" vertex="1" parent="1">
          <mxGeometry x="52.5" y="1860" width="155" height="80" as="geometry" />
        </mxCell>
        <mxCell id="YNSaIWkpB4IxSgvjuZkx-169" value="" style="endArrow=classic;html=1;rounded=0;" edge="1" parent="1">
          <mxGeometry width="50" height="50" relative="1" as="geometry">
            <mxPoint x="220" y="1900" as="sourcePoint" />
            <mxPoint x="260" y="1900" as="targetPoint" />
          </mxGeometry>
        </mxCell>
        <mxCell id="YNSaIWkpB4IxSgvjuZkx-170" value="&lt;div&gt;Verificar a Fervura da&amp;nbsp;&lt;/div&gt;&lt;div&gt;Água&lt;/div&gt;" style="rounded=1;whiteSpace=wrap;html=1;absoluteArcSize=1;arcSize=14;strokeWidth=2;" vertex="1" parent="1">
          <mxGeometry x="270" y="1860" width="155" height="80" as="geometry" />
        </mxCell>
        <mxCell id="YNSaIWkpB4IxSgvjuZkx-171" value="" style="endArrow=classic;html=1;rounded=0;" edge="1" parent="1">
          <mxGeometry width="50" height="50" relative="1" as="geometry">
            <mxPoint x="440" y="1908" as="sourcePoint" />
            <mxPoint x="480" y="1908" as="targetPoint" />
          </mxGeometry>
        </mxCell>
        <mxCell id="YNSaIWkpB4IxSgvjuZkx-172" value="Água Fervida?" style="rhombus;whiteSpace=wrap;html=1;" vertex="1" parent="1">
          <mxGeometry x="490" y="1850" width="120" height="110" as="geometry" />
        </mxCell>
        <mxCell id="YNSaIWkpB4IxSgvjuZkx-173" value="" style="endArrow=classic;html=1;rounded=0;exitX=0.5;exitY=1;exitDx=0;exitDy=0;" edge="1" parent="1" source="YNSaIWkpB4IxSgvjuZkx-172">
          <mxGeometry width="50" height="50" relative="1" as="geometry">
            <mxPoint x="550" y="1970" as="sourcePoint" />
            <mxPoint x="549.5" y="2005" as="targetPoint" />
          </mxGeometry>
        </mxCell>
        <mxCell id="YNSaIWkpB4IxSgvjuZkx-174" value="Não" style="text;html=1;align=center;verticalAlign=middle;resizable=0;points=[];autosize=1;strokeColor=none;fillColor=none;fontSize=15;fontStyle=1" vertex="1" parent="1">
          <mxGeometry x="560" y="1820" width="50" height="30" as="geometry" />
        </mxCell>
        <mxCell id="YNSaIWkpB4IxSgvjuZkx-175" value="Sim" style="text;html=1;align=center;verticalAlign=middle;resizable=0;points=[];autosize=1;strokeColor=none;fillColor=none;fontSize=15;fontStyle=1" vertex="1" parent="1">
          <mxGeometry x="570" y="1970" width="50" height="30" as="geometry" />
        </mxCell>
        <mxCell id="YNSaIWkpB4IxSgvjuZkx-176" value="" style="endArrow=none;html=1;rounded=0;" edge="1" parent="1">
          <mxGeometry width="50" height="50" relative="1" as="geometry">
            <mxPoint x="550" y="1850" as="sourcePoint" />
            <mxPoint x="550" y="1700" as="targetPoint" />
          </mxGeometry>
        </mxCell>
        <mxCell id="YNSaIWkpB4IxSgvjuZkx-177" value="" style="endArrow=classic;html=1;rounded=0;entryX=1.029;entryY=0.363;entryDx=0;entryDy=0;entryPerimeter=0;" edge="1" parent="1" target="YNSaIWkpB4IxSgvjuZkx-166">
          <mxGeometry width="50" height="50" relative="1" as="geometry">
            <mxPoint x="550" y="1700" as="sourcePoint" />
            <mxPoint x="600" y="1650" as="targetPoint" />
          </mxGeometry>
        </mxCell>
        <mxCell id="YNSaIWkpB4IxSgvjuZkx-178" value="&lt;div&gt;Em uma xícara, a quantidade de Café que deseja&lt;br&gt;&lt;/div&gt;" style="rounded=1;whiteSpace=wrap;html=1;absoluteArcSize=1;arcSize=14;strokeWidth=2;" vertex="1" parent="1">
          <mxGeometry x="472.5" y="2020" width="155" height="80" as="geometry" />
        </mxCell>
        <mxCell id="YNSaIWkpB4IxSgvjuZkx-179" value="" style="endArrow=classic;html=1;rounded=0;" edge="1" parent="1">
          <mxGeometry width="50" height="50" relative="1" as="geometry">
            <mxPoint x="550" y="2100" as="sourcePoint" />
            <mxPoint x="549.5" y="2165" as="targetPoint" />
          </mxGeometry>
        </mxCell>
        <mxCell id="YNSaIWkpB4IxSgvjuZkx-180" value="Pegar o Açúcar na Geladeira" style="rounded=1;whiteSpace=wrap;html=1;absoluteArcSize=1;arcSize=14;strokeWidth=2;" vertex="1" parent="1">
          <mxGeometry x="472.5" y="2180" width="155" height="80" as="geometry" />
        </mxCell>
        <mxCell id="YNSaIWkpB4IxSgvjuZkx-181" value="" style="endArrow=classic;html=1;rounded=0;" edge="1" parent="1">
          <mxGeometry width="50" height="50" relative="1" as="geometry">
            <mxPoint x="550" y="2260" as="sourcePoint" />
            <mxPoint x="549.5" y="2325" as="targetPoint" />
          </mxGeometry>
        </mxCell>
        <mxCell id="YNSaIWkpB4IxSgvjuZkx-182" value="Deseja Adicionar Açúcar?" style="rhombus;whiteSpace=wrap;html=1;" vertex="1" parent="1">
          <mxGeometry x="480" y="2340" width="140" height="130" as="geometry" />
        </mxCell>
        <mxCell id="YNSaIWkpB4IxSgvjuZkx-183" value="" style="endArrow=classic;html=1;rounded=0;exitX=0.5;exitY=1;exitDx=0;exitDy=0;" edge="1" parent="1">
          <mxGeometry width="50" height="50" relative="1" as="geometry">
            <mxPoint x="480" y="2404.5" as="sourcePoint" />
            <mxPoint x="439.5" y="2405" as="targetPoint" />
          </mxGeometry>
        </mxCell>
        <mxCell id="YNSaIWkpB4IxSgvjuZkx-184" value="Sim" style="text;html=1;align=center;verticalAlign=middle;resizable=0;points=[];autosize=1;strokeColor=none;fillColor=none;fontSize=15;fontStyle=1" vertex="1" parent="1">
          <mxGeometry x="430" y="2360" width="50" height="30" as="geometry" />
        </mxCell>
        <mxCell id="YNSaIWkpB4IxSgvjuZkx-185" value="Não" style="text;html=1;align=center;verticalAlign=middle;resizable=0;points=[];autosize=1;strokeColor=none;fillColor=none;fontSize=15;fontStyle=1" vertex="1" parent="1">
          <mxGeometry x="620" y="2360" width="50" height="30" as="geometry" />
        </mxCell>
        <mxCell id="YNSaIWkpB4IxSgvjuZkx-186" value="Adiciona Açúcar na Xícara de Café" style="rounded=1;whiteSpace=wrap;html=1;absoluteArcSize=1;arcSize=14;strokeWidth=2;" vertex="1" parent="1">
          <mxGeometry x="270" y="2365" width="155" height="80" as="geometry" />
        </mxCell>
        <mxCell id="YNSaIWkpB4IxSgvjuZkx-187" value="" style="endArrow=classic;html=1;rounded=0;" edge="1" parent="1">
          <mxGeometry width="50" height="50" relative="1" as="geometry">
            <mxPoint x="550" y="2470" as="sourcePoint" />
            <mxPoint x="549.5" y="2535" as="targetPoint" />
          </mxGeometry>
        </mxCell>
        <mxCell id="YNSaIWkpB4IxSgvjuZkx-188" value="Tomar o Café Preparado" style="rounded=1;whiteSpace=wrap;html=1;absoluteArcSize=1;arcSize=14;strokeWidth=2;" vertex="1" parent="1">
          <mxGeometry x="472.5" y="2540" width="155" height="80" as="geometry" />
        </mxCell>
        <mxCell id="YNSaIWkpB4IxSgvjuZkx-189" value="" style="endArrow=none;html=1;rounded=0;" edge="1" parent="1">
          <mxGeometry width="50" height="50" relative="1" as="geometry">
            <mxPoint x="620" y="2404.5" as="sourcePoint" />
            <mxPoint x="690" y="2410" as="targetPoint" />
          </mxGeometry>
        </mxCell>
        <mxCell id="YNSaIWkpB4IxSgvjuZkx-190" value="" style="endArrow=none;html=1;rounded=0;" edge="1" parent="1">
          <mxGeometry width="50" height="50" relative="1" as="geometry">
            <mxPoint x="690" y="2580" as="sourcePoint" />
            <mxPoint x="690" y="2410" as="targetPoint" />
          </mxGeometry>
        </mxCell>
        <mxCell id="YNSaIWkpB4IxSgvjuZkx-191" value="" style="endArrow=classic;html=1;rounded=0;entryX=1;entryY=0.5;entryDx=0;entryDy=0;" edge="1" parent="1" target="YNSaIWkpB4IxSgvjuZkx-188">
          <mxGeometry width="50" height="50" relative="1" as="geometry">
            <mxPoint x="690" y="2580" as="sourcePoint" />
            <mxPoint x="740" y="2530" as="targetPoint" />
          </mxGeometry>
        </mxCell>
        <mxCell id="YNSaIWkpB4IxSgvjuZkx-192" value="" style="endArrow=classic;html=1;rounded=0;entryX=0.5;entryY=0;entryDx=0;entryDy=0;" edge="1" parent="1">
          <mxGeometry width="50" height="50" relative="1" as="geometry">
            <mxPoint x="550" y="2630" as="sourcePoint" />
            <mxPoint x="550" y="2720" as="targetPoint" />
          </mxGeometry>
        </mxCell>
        <mxCell id="YNSaIWkpB4IxSgvjuZkx-193" value="" style="endArrow=none;html=1;rounded=0;" edge="1" parent="1">
          <mxGeometry width="50" height="50" relative="1" as="geometry">
            <mxPoint x="350" y="2610" as="sourcePoint" />
            <mxPoint x="350" y="2445" as="targetPoint" />
          </mxGeometry>
        </mxCell>
        <mxCell id="YNSaIWkpB4IxSgvjuZkx-194" value="" style="endArrow=classic;html=1;rounded=0;" edge="1" parent="1">
          <mxGeometry width="50" height="50" relative="1" as="geometry">
            <mxPoint x="350" y="2610" as="sourcePoint" />
            <mxPoint x="470" y="2600" as="targetPoint" />
          </mxGeometry>
        </mxCell>
        <mxCell id="YNSaIWkpB4IxSgvjuZkx-195" value="Final" style="ellipse;whiteSpace=wrap;html=1;" vertex="1" parent="1">
          <mxGeometry x="480" y="2730" width="160" height="120" as="geometry" />
        </mxCell>
        <mxCell id="YNSaIWkpB4IxSgvjuZkx-196" value="Início" style="ellipse;whiteSpace=wrap;html=1;" vertex="1" parent="1">
          <mxGeometry x="47.5" y="950" width="160" height="120" as="geometry" />
        </mxCell>
        <mxCell id="YNSaIWkpB4IxSgvjuZkx-197" value="" style="endArrow=none;html=1;rounded=0;" edge="1" parent="1">
          <mxGeometry width="50" height="50" relative="1" as="geometry">
            <mxPoint x="120" y="2850" as="sourcePoint" />
            <mxPoint x="480" y="2790" as="targetPoint" />
          </mxGeometry>
        </mxCell>
        <mxCell id="YNSaIWkpB4IxSgvjuZkx-198" value="" style="endArrow=none;html=1;rounded=0;" edge="1" parent="1">
          <mxGeometry width="50" height="50" relative="1" as="geometry">
            <mxPoint x="120" y="2930" as="sourcePoint" />
            <mxPoint x="120" y="2850" as="targetPoint" />
          </mxGeometry>
        </mxCell>
        <mxCell id="YNSaIWkpB4IxSgvjuZkx-199" value="" style="endArrow=classic;html=1;rounded=0;" edge="1" parent="1">
          <mxGeometry width="50" height="50" relative="1" as="geometry">
            <mxPoint x="120" y="2930" as="sourcePoint" />
            <mxPoint x="120" y="2980" as="targetPoint" />
          </mxGeometry>
        </mxCell>
        <mxCell id="YNSaIWkpB4IxSgvjuZkx-200" value="Tomar o Café e Pão com Ovo ou Cuscuz" style="rounded=1;whiteSpace=wrap;html=1;absoluteArcSize=1;arcSize=14;strokeWidth=2;" vertex="1" parent="1">
          <mxGeometry x="47.5" y="2980" width="155" height="80" as="geometry" />
        </mxCell>
        <mxCell id="YNSaIWkpB4IxSgvjuZkx-201" value="" style="endArrow=classic;html=1;rounded=0;" edge="1" parent="1">
          <mxGeometry width="50" height="50" relative="1" as="geometry">
            <mxPoint x="120" y="3060" as="sourcePoint" />
            <mxPoint x="119.5" y="3125" as="targetPoint" />
          </mxGeometry>
        </mxCell>
        <mxCell id="YNSaIWkpB4IxSgvjuZkx-202" value="&lt;div&gt;Preparar o Lanche e a&amp;nbsp;&lt;/div&gt;&lt;div&gt;Água&lt;/div&gt;" style="rounded=1;whiteSpace=wrap;html=1;absoluteArcSize=1;arcSize=14;strokeWidth=2;" vertex="1" parent="1">
          <mxGeometry x="47.5" y="3130" width="155" height="80" as="geometry" />
        </mxCell>
        <mxCell id="YNSaIWkpB4IxSgvjuZkx-203" value="" style="endArrow=classic;html=1;rounded=0;" edge="1" parent="1">
          <mxGeometry width="50" height="50" relative="1" as="geometry">
            <mxPoint x="120" y="3210" as="sourcePoint" />
            <mxPoint x="119.5" y="3275" as="targetPoint" />
          </mxGeometry>
        </mxCell>
        <mxCell id="YNSaIWkpB4IxSgvjuZkx-204" value="Entrar no carro e ir para o SENAI" style="rounded=1;whiteSpace=wrap;html=1;absoluteArcSize=1;arcSize=14;strokeWidth=2;" vertex="1" parent="1">
          <mxGeometry x="42.5" y="3290" width="155" height="80" as="geometry" />
        </mxCell>
        <mxCell id="YNSaIWkpB4IxSgvjuZkx-205" value="" style="endArrow=classic;html=1;rounded=0;" edge="1" parent="1">
          <mxGeometry width="50" height="50" relative="1" as="geometry">
            <mxPoint x="120" y="3370" as="sourcePoint" />
            <mxPoint x="119.5" y="3435" as="targetPoint" />
          </mxGeometry>
        </mxCell>
        <mxCell id="YNSaIWkpB4IxSgvjuZkx-206" value="Entrar no SENAI, Entrar na Sala, Sentar na Cadeira, Ligar o PC" style="rounded=1;whiteSpace=wrap;html=1;absoluteArcSize=1;arcSize=14;strokeWidth=2;" vertex="1" parent="1">
          <mxGeometry x="42.5" y="3450" width="155" height="80" as="geometry" />
        </mxCell>
        <mxCell id="YNSaIWkpB4IxSgvjuZkx-207" value="" style="endArrow=classic;html=1;rounded=0;" edge="1" parent="1">
          <mxGeometry width="50" height="50" relative="1" as="geometry">
            <mxPoint x="120" y="3530" as="sourcePoint" />
            <mxPoint x="119.5" y="3595" as="targetPoint" />
          </mxGeometry>
        </mxCell>
        <mxCell id="YNSaIWkpB4IxSgvjuZkx-208" value="Assistir Aula" style="rounded=1;whiteSpace=wrap;html=1;absoluteArcSize=1;arcSize=14;strokeWidth=2;" vertex="1" parent="1">
          <mxGeometry x="50" y="3600" width="155" height="80" as="geometry" />
        </mxCell>
        <mxCell id="YNSaIWkpB4IxSgvjuZkx-209" value="" style="endArrow=classic;html=1;rounded=0;" edge="1" parent="1">
          <mxGeometry width="50" height="50" relative="1" as="geometry">
            <mxPoint x="120" y="3680" as="sourcePoint" />
            <mxPoint x="119.5" y="3745" as="targetPoint" />
          </mxGeometry>
        </mxCell>
        <mxCell id="YNSaIWkpB4IxSgvjuZkx-210" value="Final" style="ellipse;whiteSpace=wrap;html=1;" vertex="1" parent="1">
          <mxGeometry x="45" y="3750" width="160" height="120" as="geometry" />
        </mxCell>
      </root>
    </mxGraphModel>
  </diagram>
</mxfile>
